<?xml version="1.0" encoding="utf-8"?>
<!-- Generator: Adobe Illustrator 21.0.2, SVG Export Plug-In . SVG Version: 6.00 Build 0)  -->
<svg version="1.1" id="Layer_1" xmlns="http://www.w3.org/2000/svg" xmlns:xlink="http://www.w3.org/1999/xlink" x="0px" y="0px"
	 viewBox="0 0 651 650" style="enable-background:new 0 0 651 650;" xml:space="preserve">
<style type="text/css">
	.st0{fill:#FFFFFF;}
</style>
<g>
	<path class="st0" d="M625,326.3c2,159.5-128.7,296.3-293.5,299.2C166.2,628.4,27.9,495.9,26.7,328C25.5,163.5,156.2,28,322.4,26
		C495.8,23.9,627.5,166.3,625,326.3z M464.5,86.3c0,1.4-0.1,2.6,0,3.7c6,56,12.2,112,17.9,168c5.3,52.1,10.4,104.2,15.2,156.4
		c1.9,20.2-2.2,39.4-16.8,54.2c-12.8,13-26.5,25.3-41.1,36.1c-29.8,22.2-60.2,43.6-90.9,64.5c-12.5,8.5-13,20.5-14.3,33.2
		c107.6-0.3,227.6-76.3,260.7-210.1C628.2,258.9,558,136.7,464.5,86.3z M314.6,602.6c-0.4-14.1-2.2-26.1-15.4-34.4
		c-15.4-9.8-30-20.9-44.8-31.7c-27.5-20.1-56.8-37.8-81-62.4c-12-12.1-19.5-25.8-21.3-42.3c-1-9.6,0-19.5,0.9-29.1
		c8-82.4,16.2-164.8,24.5-247.2c2.2-22.3,4.8-44.6,7.2-67.5C95,138,26.1,255.9,55.7,387.2C84.5,515.3,197.6,599.5,314.6,602.6z
		 M324.8,184.5c10.6-7.5,22.4-15.9,34.3-24.2c6.2-4.4,12.8-8.3,18.7-13c9.3-7.4,15-17.5,14.2-29.3c-1.2-19.1-3.5-38.1-6.1-57.1
		c-0.4-2.8-4.2-6.8-7-7.4c-36.2-7.1-72.4-7.1-108.7,0.3c-5.4,1.1-6.8,3.8-7.2,8.6c-1,10.9-2.7,21.7-3.3,32.6
		c-0.6,10-1.3,20.2,0.2,30c2.6,17.5,15.7,27.2,29.8,35.9C302.1,168.5,313.7,177,324.8,184.5z M316.6,498.7
		c5.9-16.5,1.4-32.7-11.5-42.3c-8.3-6.2-17.4-11.3-26-17c-22.7-15.2-46.3-29.5-67.8-46.2c-18.6-14.5-28-34.9-25.7-59.5
		c4.3-47.9,8.1-95.9,12.4-143.8c3.4-38.1,7.2-76.2,10.9-114.8c-8,1.7-12.6,5.1-13.2,13.7c-1.5,20-3.7,40-5.7,60
		c-6,61.5-12.1,123-17.9,184.5c-1.7,18.7-4.5,37.5,6.4,55.1c11.1,18,25.5,32.5,42.6,44.6C252.4,455,288.5,470,316.6,498.7z
		 M440.9,75c-0.1,1.6-0.4,3.1-0.2,4.5c3.1,31.5,6.4,63,9.2,94.5c4.8,53.3,9.2,106.7,13.9,160.1c1.8,19.8-4.8,36.5-17.7,51.1
		c-16.9,19-38.5,31.6-59.8,44.6c-13.8,8.4-27.8,16.5-41,25.7c-14.1,9.9-19,28.4-13.3,39.5c26.3-17,53-33.9,79.3-51.2
		c10.4-6.8,21-13.7,30.4-21.8c24.6-21,41-45.2,37-80.6c-9.4-83.8-17.2-167.7-25-251.6C452.8,80.7,449.6,76.5,440.9,75z M417.4,64.6
		c1,12.1,1.9,23.9,2.9,35.6c4.2,45.1,7.1,90.5,13.1,135.4c3.8,27.8-1.4,50.7-22.1,69.5c-7.4,6.7-15.7,12.6-23.9,18.3
		c-14,9.7-28.8,18.3-42.5,28.4c-15.2,11.2-18.6,24.4-12.2,44.8c18.7-21.5,43.2-33.8,66.2-48.5c4.4-2.8,8.7-5.6,12.9-8.7
		c20.2-14.8,35.3-33.3,36.8-59.3c0.7-12.6-1.5-25.4-2.8-38.1c-5.6-55.7-11.5-111.4-16.9-167.1C428.1,67.6,424.8,64.9,417.4,64.6z
		 M316.5,396.3c6.7-18.3,3.1-32.9-10.6-43.5c-7.4-5.8-15.4-10.9-23.2-16.2c-12.8-8.7-26.3-16.6-38.5-26.2
		c-20.5-16.1-32.5-36.5-29.5-64.1c4.5-43,8.4-86,12.5-129.1c1.6-17.1,3.2-34.2,4.8-51.8c-7.8,0.8-11.8,3.7-11.5,11.1
		c0.1,3-0.8,6-1.1,9c-5.5,53.3-10.3,106.7-16.5,159.9c-4.6,39.4,4.4,72.3,38.3,96.1C266.5,359.4,295.4,372,316.5,396.3z M396.8,59.8
		c0,2.4-0.1,4.8,0,7.1c2.3,36.4,4.7,72.9,7,109.3c1,15.7-5.7,28-17.8,37.1c-10,7.5-20.8,13.8-31.3,20.5c-10.7,6.9-20.1,15.3-23.6,28
		c-1.7,6-1.4,12.5-2.1,19c21.1-14.6,40.6-27.8,59.9-41.5c5.9-4.2,11.4-9.2,16.5-14.3c10.1-10,14.2-22,12.7-36.5
		c-4.2-40-7.8-80-11.4-120C406.2,62.1,403.6,59.1,396.8,59.8z M320,280.7c-0.8-7-0.6-13.6-2.3-19.7c-3.9-13.8-14.6-22-26.1-29.4
		c-9.7-6.2-19.9-11.9-29-19c-11.6-9-18.4-21.1-17.6-36.3c1.3-25.8,2.7-51.7,4.3-77.5c0.8-13.3,2.2-26.5,3.3-39.8
		c-8.2-0.5-9.9,3.4-10.4,10c-2.9,34-4.9,68.1-10,101.7c-4.8,32,4.9,55.4,32.7,71.6c0.8,0.5,1.5,1,2.3,1.5
		C284.1,255.7,301,267.5,320,280.7z"/>
</g>
</svg>
